ffmpeg started on 2016-12-01 at 20:16:53
Report written to "Output/x264/results/ffmpeg/old_town_cross_2160p50slow11000k.log"
Command line:
Tools/ffmpeg/ffmpeg -benchmark -y -i Input/y4m/old_town_cross_2160p50.y4m -c:v libx264 -preset slow -b:v 11000k -an Output/x264/encoded/old_town_cross_2160p50slow11000k.mkv
ffmpeg version N-82227-gdb23fde Copyright (c) 2000-2016 the FFmpeg developers
  built with gcc 5.4.0 (Ubuntu 5.4.0-6ubuntu1~16.04.2) 20160609
  configuration: --prefix=/home/jaroslav/ffmpeg_build --pkg-config-flags=--static --extra-cflags=-I/home/jaroslav/ffmpeg_build/include --extra-ldflags=-L/home/jaroslav/ffmpeg_build/lib --bindir=/home/jaroslav/bin --enable-gpl --enable-libass --enable-libfdk-aac --enable-libfreetype --enable-libmp3lame --enable-libopus --enable-libtheora --enable-libvorbis --enable-libvpx --enable-libx264 --enable-libx265 --enable-nvenc --enable-libmfx --enable-libxvid --enable-libgsm --enable-libopencore-amrnb --enable-version3 --enable-nonfree
  libavutil      55. 35.100 / 55. 35.100
  libavcodec     57. 66.101 / 57. 66.101
  libavformat    57. 57.100 / 57. 57.100
  libavdevice    57.  2.100 / 57.  2.100
  libavfilter     6. 66.100 /  6. 66.100
  libswscale      4.  3.100 /  4.  3.100
  libswresample   2.  4.100 /  2.  4.100
  libpostproc    54.  2.100 / 54.  2.100
Input #0, yuv4mpegpipe, from 'Input/y4m/old_town_cross_2160p50.y4m':
  Duration: 00:00:10.00, start: 0.000000, bitrate: 4976642 kb/s
    Stream #0:0: Video: rawvideo (I420 / 0x30323449), yuv420p(progressive), 3840x2160, SAR 1:1 DAR 16:9, 50 fps, 50 tbr, 50 tbn, 50 tbc
[libx264 @ 0x3c23120] using SAR=1/1
[libx264 @ 0x3c23120] using cpu capabilities: MMX2 SSE2Fast SSSE3 SSE4.2 AVX FMA3 AVX2 LZCNT BMI2
[libx264 @ 0x3c23120] profile High, level 5.2
[libx264 @ 0x3c23120] 264 - core 148 - H.264/MPEG-4 AVC codec - Copyleft 2003-2016 - http://www.videolan.org/x264.html - options: cabac=1 ref=5 deblock=1:0:0 analyse=0x3:0x113 me=hex subme=8 psy=1 psy_rd=1.00:0.00 mixed_ref=1 me_range=16 chroma_me=1 trellis=2 8x8dct=1 cqm=0 deadzone=21,11 fast_pskip=1 chroma_qp_offset=-2 threads=6 lookahead_threads=1 sliced_threads=0 nr=0 decimate=1 interlaced=0 bluray_compat=0 constrained_intra=0 bframes=3 b_pyramid=2 b_adapt=1 b_bias=0 direct=3 weightb=1 open_gop=0 weightp=2 keyint=250 keyint_min=25 scenecut=40 intra_refresh=0 rc_lookahead=50 rc=abr mbtree=1 bitrate=11000 ratetol=1.0 qcomp=0.60 qpmin=0 qpmax=69 qpstep=4 ip_ratio=1.40 aq=1:1.00
Output #0, matroska, to 'Output/x264/encoded/old_town_cross_2160p50slow11000k.mkv':
  Metadata:
    encoder         : Lavf57.57.100
    Stream #0:0: Video: h264 (libx264) (H264 / 0x34363248), yuv420p, 3840x2160 [SAR 1:1 DAR 16:9], q=-1--1, 11000 kb/s, 50 fps, 1k tbn, 50 tbc
    Metadata:
      encoder         : Lavc57.66.101 libx264
    Side data:
      cpb: bitrate max/min/avg: 0/0/11000000 buffer size: 0 vbv_delay: -1
Stream mapping:
  Stream #0:0 -> #0:0 (rawvideo (native) -> h264 (libx264))
Press [q] to stop, [?] for help
frame=   57 fps= 18 q=0.0 size=       0kB time=00:00:00.00 bitrate=N/A speed=   0x    frame=   62 fps= 14 q=33.0 size=       1kB time=-00:00:00.01 bitrate=N/A speed=N/A    frame=   64 fps= 13 q=33.0 size=       1kB time=00:00:00.02 bitrate= 279.6kbits/s speed=0.00421x    frame=   69 fps= 12 q=48.0 size=       1kB time=00:00:00.12 bitrate=  48.5kbits/s speed=0.0208x    frame=   76 fps= 12 q=45.0 size=       1kB time=00:00:00.26 bitrate=  22.5kbits/s speed=0.0406x    frame=   84 fps= 12 q=42.0 size=       1kB time=00:00:00.42 bitrate=  13.9kbits/s speed=0.0596x    frame=   91 fps= 12 q=40.0 size=       1kB time=00:00:00.56 bitrate=  10.5kbits/s speed=0.0739x    frame=   97 fps= 12 q=38.0 size=       1kB time=00:00:00.68 bitrate=   8.6kbits/s speed=0.0837x    frame=  103 fps= 12 q=38.0 size=       1kB time=00:00:00.80 bitrate=   7.3kbits/s speed=0.09x    frame=  108 fps= 11 q=37.0 size=       1kB time=00:00:00.90 bitrate=   6.5kbits/s speed=0.0954x    frame=  113 fps= 11 q=36.0 size=       1kB time=00:00:01.00 bitrate=   5.9kbits/s speed=0.0999x    frame=  118 fps= 11 q=36.0 size=       1kB time=00:00:01.10 bitrate=   5.3kbits/s speed=0.105x    frame=  121 fps= 11 q=36.0 size=       1kB time=00:00:01.16 bitrate=   5.1kbits/s speed=0.105x    frame=  125 fps= 11 q=35.0 size=       1kB time=00:00:01.24 bitrate=   4.7kbits/s speed=0.107x    frame=  129 fps= 11 q=35.0 size=       1kB time=00:00:01.32 bitrate=   4.4kbits/s speed=0.109x    frame=  133 fps= 10 q=35.0 size=       1kB time=00:00:01.40 bitrate=   4.2kbits/s speed=0.11x    frame=  136 fps= 10 q=35.0 size=       1kB time=00:00:01.46 bitrate=   4.0kbits/s speed=0.11x    frame=  141 fps= 10 q=35.0 size=       1kB time=00:00:01.56 bitrate=   3.8kbits/s speed=0.113x    frame=  143 fps=9.9 q=35.0 size=       1kB time=00:00:01.60 bitrate=   3.7kbits/s speed=0.111x    frame=  147 fps=9.8 q=35.0 size=       1kB time=00:00:01.68 bitrate=   3.5kbits/s speed=0.112x    frame=  151 fps=9.7 q=35.0 size=       1kB time=00:00:01.76 bitrate=   3.3kbits/s speed=0.113x    frame=  155 fps=9.5 q=35.0 size=       1kB time=00:00:01.84 bitrate=   3.2kbits/s speed=0.113x    frame=  159 fps=9.4 q=35.0 size=       1kB time=00:00:01.92 bitrate=   3.1kbits/s speed=0.113x    frame=  163 fps=9.3 q=34.0 size=       1kB time=00:00:02.00 bitrate=   2.9kbits/s speed=0.114x    frame=  167 fps=9.2 q=34.0 size=       1kB time=00:00:02.08 bitrate=   2.8kbits/s speed=0.115x    frame=  171 fps=9.1 q=34.0 size=       1kB time=00:00:02.16 bitrate=   2.7kbits/s speed=0.115x    frame=  175 fps=9.0 q=34.0 size=       1kB time=00:00:02.24 bitrate=   2.6kbits/s speed=0.115x    frame=  179 fps=9.0 q=34.0 size=       1kB time=00:00:02.32 bitrate=   2.5kbits/s speed=0.117x    frame=  183 fps=8.8 q=34.0 size=       1kB time=00:00:02.40 bitrate=   2.4kbits/s speed=0.116x    frame=  187 fps=8.7 q=34.0 size=       1kB time=00:00:02.48 bitrate=   2.4kbits/s speed=0.116x    frame=  191 fps=8.6 q=34.0 size=       1kB time=00:00:02.56 bitrate=   2.3kbits/s speed=0.116x    frame=  195 fps=8.6 q=34.0 size=       1kB time=00:00:02.64 bitrate=   2.2kbits/s speed=0.116x    frame=  199 fps=8.5 q=34.0 size=       1kB time=00:00:02.72 bitrate=   2.2kbits/s speed=0.116x    frame=  204 fps=8.5 q=34.0 size=       1kB time=00:00:02.82 bitrate=   2.1kbits/s speed=0.117x    frame=  207 fps=8.4 q=34.0 size=       1kB time=00:00:02.88 bitrate=   2.0kbits/s speed=0.116x    frame=  211 fps=8.3 q=34.0 size=       1kB time=00:00:02.96 bitrate=   2.0kbits/s speed=0.117x    frame=  215 fps=8.2 q=34.0 size=       1kB time=00:00:03.04 bitrate=   1.9kbits/s speed=0.117x    frame=  219 fps=8.2 q=34.0 size=       1kB time=00:00:03.12 bitrate=   1.9kbits/s speed=0.117x    frame=  223 fps=8.1 q=34.0 size=       1kB time=00:00:03.20 bitrate=   1.8kbits/s speed=0.117x    frame=  227 fps=8.1 q=34.0 size=       1kB time=00:00:03.28 bitrate=   1.8kbits/s speed=0.117x    frame=  231 fps=8.0 q=34.0 size=       1kB time=00:00:03.36 bitrate=   1.7kbits/s speed=0.117x    frame=  237 fps=8.1 q=34.0 size=       1kB time=00:00:03.48 bitrate=   1.7kbits/s speed=0.118x    frame=  239 fps=7.9 q=34.0 size=       1kB time=00:00:03.52 bitrate=   1.7kbits/s speed=0.117x    frame=  243 fps=7.9 q=34.0 size=       1kB time=00:00:03.60 bitrate=   1.6kbits/s speed=0.118x    frame=  247 fps=7.9 q=34.0 size=       1kB time=00:00:03.68 bitrate=   1.6kbits/s speed=0.117x    frame=  251 fps=7.8 q=34.0 size=       1kB time=00:00:03.76 bitrate=   1.6kbits/s speed=0.117x    frame=  255 fps=7.8 q=34.0 size=       1kB time=00:00:03.84 bitrate=   1.5kbits/s speed=0.117x    frame=  260 fps=7.8 q=34.0 size=       1kB time=00:00:03.94 bitrate=   1.5kbits/s speed=0.118x    frame=  263 fps=7.7 q=34.0 size=       1kB time=00:00:04.00 bitrate=   1.5kbits/s speed=0.117x    frame=  268 fps=7.7 q=34.0 size=    5139kB time=00:00:04.10 bitrate=10265.0kbits/s speed=0.118x    frame=  271 fps=7.6 q=34.0 size=    5139kB time=00:00:04.16 bitrate=10117.0kbits/s speed=0.116x    frame=  273 fps=7.4 q=34.0 size=    5139kB time=00:00:04.20 bitrate=10020.6kbits/s speed=0.114x    frame=  275 fps=7.3 q=34.0 size=    5139kB time=00:00:04.24 bitrate=9926.1kbits/s speed=0.112x    frame=  279 fps=7.3 q=34.0 size=    5139kB time=00:00:04.32 bitrate=9742.3kbits/s speed=0.113x    frame=  280 fps=7.2 q=34.0 size=    5139kB time=00:00:04.34 bitrate=9697.5kbits/s speed=0.112x    frame=  283 fps=7.1 q=34.0 size=    5139kB time=00:00:04.40 bitrate=9565.3kbits/s speed=0.111x    frame=  286 fps=7.1 q=34.0 size=    5139kB time=00:00:04.46 bitrate=9436.6kbits/s speed=0.111x    frame=  289 fps=7.1 q=34.0 size=    5139kB time=00:00:04.52 bitrate=9311.4kbits/s speed=0.111x    frame=  292 fps=7.1 q=34.0 size=    5139kB time=00:00:04.58 bitrate=9189.4kbits/s speed=0.111x    frame=  295 fps=7.0 q=35.0 size=    5139kB time=00:00:04.64 bitrate=9070.6kbits/s speed=0.111x    frame=  297 fps=7.0 q=35.0 size=    5139kB time=00:00:04.68 bitrate=8993.1kbits/s speed=0.11x    frame=  300 fps=7.0 q=35.0 size=    5139kB time=00:00:04.74 bitrate=8879.3kbits/s speed=0.11x    frame=  303 fps=7.0 q=35.0 size=    5139kB time=00:00:04.80 bitrate=8768.3kbits/s speed=0.11x    frame=  307 fps=7.0 q=35.0 size=    5139kB time=00:00:04.88 bitrate=8624.6kbits/s speed=0.111x    frame=  311 fps=6.9 q=35.0 size=    6631kB time=00:00:04.96 bitrate=10950.3kbits/s speed=0.11x    frame=  317 fps=6.9 q=35.0 size=    6631kB time=00:00:05.08 bitrate=10691.7kbits/s speed=0.111x    frame=  320 fps=6.9 q=35.0 size=    6631kB time=00:00:05.14 bitrate=10566.9kbits/s speed=0.111x    frame=  324 fps=6.9 q=35.0 size=    6631kB time=00:00:05.22 bitrate=10405.0kbits/s speed=0.111x    frame=  330 fps=6.9 q=35.0 size=    6631kB time=00:00:05.34 bitrate=10171.2kbits/s speed=0.112x    frame=  332 fps=6.9 q=35.0 size=    6631kB time=00:00:05.38 bitrate=10095.6kbits/s speed=0.112x    frame=  336 fps=6.9 q=35.0 size=    6631kB time=00:00:05.46 bitrate=9947.7kbits/s speed=0.112x    frame=  341 fps=6.9 q=35.0 size=    6631kB time=00:00:05.56 bitrate=9768.8kbits/s speed=0.113x    frame=  345 fps=6.9 q=35.0 size=    6631kB time=00:00:05.64 bitrate=9630.3kbits/s speed=0.113x    frame=  350 fps=6.9 q=35.0 size=    6631kB time=00:00:05.74 bitrate=9462.5kbits/s speed=0.113x    frame=  356 fps=6.9 q=35.0 size=    6631kB time=00:00:05.86 bitrate=9268.8kbits/s speed=0.113x    frame=  360 fps=6.9 q=35.0 size=    6631kB time=00:00:05.94 bitrate=9144.0kbits/s speed=0.114x    frame=  364 fps=6.9 q=35.0 size=    6631kB time=00:00:06.02 bitrate=9022.5kbits/s speed=0.114x    frame=  368 fps=6.9 q=35.0 size=    6631kB time=00:00:06.10 bitrate=8904.2kbits/s speed=0.114x    frame=  372 fps=6.9 q=35.0 size=    6631kB time=00:00:06.18 bitrate=8788.9kbits/s speed=0.114x    frame=  376 fps=6.9 q=35.0 size=    6631kB time=00:00:06.26 bitrate=8676.6kbits/s speed=0.114x    frame=  380 fps=6.9 q=35.0 size=    6631kB time=00:00:06.34 bitrate=8567.1kbits/s speed=0.115x    frame=  384 fps=6.9 q=35.0 size=    6631kB time=00:00:06.42 bitrate=8460.4kbits/s speed=0.115x    frame=  388 fps=6.9 q=34.0 size=    6631kB time=00:00:06.50 bitrate=8356.3kbits/s speed=0.115x    frame=  393 fps=6.9 q=34.0 size=    6631kB time=00:00:06.60 bitrate=8229.7kbits/s speed=0.116x    frame=  396 fps=6.9 q=34.0 size=    6631kB time=00:00:06.66 bitrate=8155.6kbits/s speed=0.115x    frame=  400 fps=6.9 q=34.0 size=    6631kB time=00:00:06.74 bitrate=8058.8kbits/s speed=0.116x    frame=  404 fps=6.9 q=34.0 size=    6631kB time=00:00:06.82 bitrate=7964.3kbits/s speed=0.116x    frame=  408 fps=6.8 q=34.0 size=    6631kB time=00:00:06.90 bitrate=7871.9kbits/s speed=0.116x    frame=  412 fps=6.8 q=34.0 size=    6631kB time=00:00:06.98 bitrate=7781.7kbits/s speed=0.116x    frame=  416 fps=6.8 q=34.0 size=    6631kB time=00:00:07.06 bitrate=7693.6kbits/s speed=0.116x    frame=  420 fps=6.8 q=34.0 size=    6631kB time=00:00:07.14 bitrate=7607.4kbits/s speed=0.116x    frame=  424 fps=6.8 q=34.0 size=    6631kB time=00:00:07.22 bitrate=7523.1kbits/s speed=0.116x    frame=  429 fps=6.8 q=34.0 size=    6631kB time=00:00:07.32 bitrate=7420.3kbits/s speed=0.117x    frame=  432 fps=6.8 q=34.0 size=    6631kB time=00:00:07.38 bitrate=7360.0kbits/s speed=0.116x    frame=  438 fps=6.8 q=34.0 size=    6631kB time=00:00:07.50 bitrate=7242.3kbits/s speed=0.117x    frame=  440 fps=6.8 q=34.0 size=    6631kB time=00:00:07.54 bitrate=7203.9kbits/s speed=0.116x    frame=  445 fps=6.8 q=34.0 size=    6631kB time=00:00:07.64 bitrate=7109.6kbits/s speed=0.117x    frame=  448 fps=6.8 q=34.0 size=    6631kB time=00:00:07.70 bitrate=7054.2kbits/s speed=0.116x    frame=  452 fps=6.8 q=34.0 size=    6631kB time=00:00:07.78 bitrate=6981.7kbits/s speed=0.117x    frame=  456 fps=6.8 q=34.0 size=    6631kB time=00:00:07.86 bitrate=6910.6kbits/s speed=0.117x    frame=  462 fps=6.8 q=34.0 size=    6631kB time=00:00:07.98 bitrate=6806.7kbits/s speed=0.117x    frame=  464 fps=6.8 q=34.0 size=    6631kB time=00:00:08.02 bitrate=6772.8kbits/s speed=0.117x    frame=  469 fps=6.8 q=34.0 size=    6631kB time=00:00:08.12 bitrate=6689.4kbits/s speed=0.117x    frame=  472 fps=6.7 q=34.0 size=    6631kB time=00:00:08.18 bitrate=6640.3kbits/s speed=0.117x    frame=  476 fps=6.7 q=34.0 size=    6631kB time=00:00:08.26 bitrate=6576.0kbits/s speed=0.117x    frame=  480 fps=6.7 q=34.0 size=    6631kB time=00:00:08.34 bitrate=6512.9kbits/s speed=0.117x    frame=  484 fps=6.7 q=34.0 size=    6631kB time=00:00:08.42 bitrate=6451.0kbits/s speed=0.117x    frame=  488 fps=6.7 q=34.0 size=    6631kB time=00:00:08.50 bitrate=6390.3kbits/s speed=0.117x    frame=  492 fps=6.7 q=34.0 size=    6631kB time=00:00:08.58 bitrate=6330.8kbits/s speed=0.117x    frame=  496 fps=6.7 q=34.0 size=    6631kB time=00:00:08.66 bitrate=6272.3kbits/s speed=0.117x    frame=  500 fps=6.7 q=34.0 size=    6631kB time=00:00:08.74 bitrate=6214.9kbits/s speed=0.117x    frame=  500 fps=5.9 q=-1.0 Lsize=   13656kB time=00:00:09.94 bitrate=11253.2kbits/s speed=0.117x    
video:13651kB audio:0kB subtitle:0kB other streams:0kB global headers:0kB muxing overhead: 0.033365%
bench: utime=319.040s
bench: maxrss=2229788kB
[libx264 @ 0x3c23120] frame I:3     Avg QP:29.72  size:492201
[libx264 @ 0x3c23120] frame P:183   Avg QP:32.62  size: 43783
[libx264 @ 0x3c23120] frame B:314   Avg QP:34.65  size: 14297
[libx264 @ 0x3c23120] consecutive B-frames: 16.0%  0.8%  0.0% 83.2%
[libx264 @ 0x3c23120] mb I  I16..4: 15.8% 69.1% 15.0%
[libx264 @ 0x3c23120] mb P  I16..4:  0.0%  0.0%  0.0%  P16..4: 37.1%  3.2%  6.4%  0.0%  0.0%    skip:53.2%
[libx264 @ 0x3c23120] mb B  I16..4:  0.0%  0.0%  0.0%  B16..8: 48.7%  0.2%  0.0%  direct: 0.1%  skip:51.1%  L0:47.6% L1:52.3% BI: 0.0%
[libx264 @ 0x3c23120] final ratefactor: 26.59
[libx264 @ 0x3c23120] 8x8 transform intra:69.4% inter:66.5%
[libx264 @ 0x3c23120] direct mvs  spatial:98.7% temporal:1.3%
[libx264 @ 0x3c23120] coded y,uvDC,uvAC intra: 88.5% 77.2% 57.4% inter: 4.1% 5.2% 0.0%
[libx264 @ 0x3c23120] i16 v,h,dc,p: 12% 25% 10% 53%
[libx264 @ 0x3c23120] i8 v,h,dc,ddl,ddr,vr,hd,vl,hu:  5%  7%  1% 14% 19% 14% 19%  9% 12%
[libx264 @ 0x3c23120] i4 v,h,dc,ddl,ddr,vr,hd,vl,hu:  2%  2%  1% 21% 21% 13% 17% 10% 13%
[libx264 @ 0x3c23120] i8c dc,h,v,p: 41% 30% 16% 12%
[libx264 @ 0x3c23120] Weighted P-Frames: Y:0.5% UV:0.0%
[libx264 @ 0x3c23120] ref P L0: 59.2% 19.7% 13.2%  3.4%  3.3%  1.2%
[libx264 @ 0x3c23120] ref B L0: 78.3% 14.6%  6.1%  1.0%
[libx264 @ 0x3c23120] ref B L1: 93.5%  6.5%
[libx264 @ 0x3c23120] kb/s:11182.54
